<svg version="1.1" viewBox="0.0 0.0 529.0603674540682 212.8188976377953" fill="none" stroke="none" stroke-linecap="square" stroke-miterlimit="10" xmlns:xlink="http://www.w3.org/1999/xlink" xmlns="http://www.w3.org/2000/svg"><clipPath id="p.0"><path d="m0 0l529.06036 0l0 212.8189l-529.06036 0l0 -212.8189z" clip-rule="nonzero"/></clipPath><g clip-path="url(#p.0)"><path fill="#000000" fill-opacity="0.0" d="m0 0l529.06036 0l0 212.8189l-529.06036 0z" fill-rule="evenodd"/><path fill="#d0e0e3" d="m7.2718635 61.94101l95.46456 0l0 95.46457l-95.46456 0z" fill-rule="evenodd"/><path stroke="#000000" stroke-width="1.0" stroke-linejoin="round" stroke-linecap="butt" d="m7.2718635 61.94101l95.46456 0l0 95.46457l-95.46456 0z" fill-rule="evenodd"/><path fill="#000000" d="m45.401913 116.59329l5.171875 -6.953125l-4.5625 -6.40625l2.109375 0l2.421875 3.4375q0.75 1.0625 1.078125 1.625q0.4375 -0.71875 1.046875 -1.515625l2.6875 -3.546875l1.921875 0l-4.6875 6.296875l5.0625 7.0625l-2.1875 0l-3.359375 -4.765625q-0.28125 -0.40625 -0.59375 -0.890625q-0.4375 0.734375 -0.625 1.0l-3.359375 4.65625l-2.125 0z" fill-rule="nonzero"/><path fill="#000000" d="m62.407986 123.59329l-1.09375 0l0 -6.96875q-0.40625 0.375 -1.046875 0.75q-0.640625 0.375 -1.140625 0.578125l0 -1.0625q0.90625 -0.4375 1.59375 -1.046875q0.6875 -0.609375 0.96875 -1.1875l0.71875 0l0 8.9375z" fill-rule="nonzero"/><path fill="#f9cb9c" d="m426.03302 61.94101l95.46454 0l0 95.46457l-95.46454 0z" fill-rule="evenodd"/><path stroke="#000000" stroke-width="1.0" stroke-linejoin="round" stroke-linecap="butt" d="m426.03302 61.94101l95.46454 0l0 95.46457l-95.46454 0z" fill-rule="evenodd"/><path fill="#000000" d="m472.74664 116.59329l0 -5.65625l-5.15625 -7.703125l2.15625 0l2.640625 4.03125q0.71875 1.125 1.34375 2.265625q0.609375 -1.046875 1.46875 -2.359375l2.578125 -3.9375l2.0625 0l-5.328125 7.703125l0 5.65625l-1.765625 0z" fill-rule="nonzero"/><path fill="#fff2cc" d="m216.65244 110.67067l95.46457 0l0 95.46457l-95.46457 0z" fill-rule="evenodd"/><path stroke="#000000" stroke-width="1.0" stroke-linejoin="round" stroke-linecap="butt" d="m216.65244 110.67067l95.46457 0l0 95.46457l-95.46457 0z" fill-rule="evenodd"/><path fill="#000000" d="m254.78249 165.32295l5.1718903 -6.953125l-4.5625153 -6.40625l2.1093903 0l2.421875 3.4375q0.75 1.0625 1.078125 1.625q0.4375 -0.71875 1.046875 -1.515625l2.6875 -3.546875l1.921875 0l-4.6875 6.296875l5.0625 7.0625l-2.1875 0l-3.359375 -4.765625q-0.28125 -0.40625 -0.59375 -0.890625q-0.4375 0.734375 -0.625 1.0l-3.359375 4.65625l-2.1250153 0z" fill-rule="nonzero"/><path fill="#000000" d="m273.41357 171.27608l0 1.046875l-5.890625 0q-0.015625 -0.390625 0.125 -0.765625q0.234375 -0.59375 0.71875 -1.171875q0.5 -0.59375 1.4375 -1.359375q1.453125 -1.1875 1.953125 -1.875q0.515625 -0.703125 0.515625 -1.3125q0 -0.65625 -0.46875 -1.09375q-0.453125 -0.453125 -1.203125 -0.453125q-0.796875 0 -1.265625 0.46875q-0.46875 0.46875 -0.484375 1.3125l-1.125 -0.109375q0.125 -1.265625 0.875 -1.921875q0.75 -0.65625 2.015625 -0.65625q1.28125 0 2.03125 0.71875q0.75 0.703125 0.75 1.75q0 0.53125 -0.21875 1.046875q-0.21875 0.515625 -0.734375 1.09375q-0.5 0.5625 -1.671875 1.5625q-0.984375 0.828125 -1.265625 1.125q-0.28125 0.296875 -0.46875 0.59375l4.375 0z" fill-rule="nonzero"/><path fill="#000000" fill-opacity="0.0" d="m102.73643 109.673294c28.47918 0 42.718193 12.181107 56.95835 24.362198c14.240158 12.181107 28.48146 24.362213 56.962906 24.362213" fill-rule="evenodd"/><path stroke="#000000" stroke-width="2.0" stroke-linejoin="round" stroke-linecap="butt" d="m102.73643 109.67329c28.47918 0 42.718193 12.181107 56.95835 24.362206c7.1200867 6.090561 14.240448 12.181107 23.140976 16.749023c4.4502563 2.2839508 9.345551 4.187256 14.908386 5.519562c1.3907013 0.33306885 2.8231354 0.63046265 4.300766 0.8891907c0.73880005 0.12936401 1.4889221 0.24905396 2.250763 0.35871887l0.38813782 0.054382324" fill-rule="evenodd"/><path fill="#000000" stroke="#000000" stroke-width="2.0" stroke-linecap="butt" d="m204.46596 160.90265l9.274292 -2.697754l-8.838608 -3.8947906z" fill-rule="evenodd"/><path fill="#000000" fill-opacity="0.0" d="m312.117 158.40295c28.479187 0 42.7182 -12.181107 56.958344 -24.362213c14.240173 -12.181091 28.481476 -24.362198 56.96292 -24.362198" fill-rule="evenodd"/><path stroke="#000000" stroke-width="2.0" stroke-linejoin="round" stroke-linecap="butt" d="m312.117 158.40295c28.479187 0 42.7182 -12.181107 56.958374 -24.362213c7.1200867 -6.0905457 14.240448 -12.181099 23.14096 -16.749016c4.4502563 -2.2839508 9.345551 -4.187248 14.908386 -5.519562c1.390686 -0.33307648 2.82312 -0.63046265 4.3007507 -0.8891983c0.73880005 -0.12935638 1.4889221 -0.24905396 2.2507324 -0.35871887l0.3881836 -0.054382324" fill-rule="evenodd"/><path fill="#000000" stroke="#000000" stroke-width="2.0" stroke-linecap="butt" d="m414.28223 113.766136l8.838593 -3.8947906l-9.274292 -2.697754z" fill-rule="evenodd"/><path fill="#000000" fill-opacity="0.0" d="m55.004147 61.94101c0 -26.992958 104.69292 -53.993793 209.38583 -53.985916c104.6929 0.007874012 209.3858 27.024454 209.3858 54.048912" fill-rule="evenodd"/><path stroke="#999999" stroke-width="2.0" stroke-linejoin="round" stroke-linecap="butt" stroke-dasharray="8.0,6.0" d="m55.004147 61.941013c0 -26.992962 104.6929 -53.993797 209.3858 -53.985924c52.346466 0.0039372444 104.69293 6.760051 143.95276 16.893238c19.629944 5.066595 35.98819 10.977457 47.438995 17.310698c2.8627014 1.5833092 5.4186707 3.193016 7.642395 4.8225327c1.1118164 0.8147621 2.140625 1.6344681 3.08313 2.4583092c0.47122192 0.41191864 0.9209595 0.82487106 1.3486633 1.2387466c0.106933594 0.10346985 0.21252441 0.20699692 0.3166809 0.31058502l0.2652588 0.26742172" fill-rule="evenodd"/><path fill="#999999" stroke="#999999" stroke-width="2.0" stroke-linecap="butt" d="m465.4792 52.726105l6.996002 6.659294l-1.0787354 -9.598255z" fill-rule="evenodd"/></g></svg>